<svg xmlns="http://www.w3.org/2000/svg" data-name="Camada 1" viewBox="0 0 32 40" x="0px" y="0px"><title>Prancheta 40</title><path d="M3,30a1,1,0,0,0,1-1c0-1.30115-.07373-2.60986-.051-3.90881a2.01775,2.01775,0,0,1,1.37061-2.09766A8.16623,8.16623,0,0,1,7.832,22.797a29.40659,29.40659,0,0,0,4.67578-.26831,20.73709,20.73709,0,0,0,4.13037-1.11133,20.87,20.87,0,0,0,6.42456-3.92481,1.9963,1.9963,0,0,0,.0542-2.892L21.083,12.57043a.56292.56292,0,0,1,.3977-.96142h4.90552a2.02169,2.02169,0,0,0,1.844-1.2124,20.62142,20.62142,0,0,0,1.65821-6.23267A1.98954,1.98954,0,0,0,27.89233,2H25.18555A23.69881,23.69881,0,0,0,4.448,14.63806a22.46832,22.46832,0,0,0-2.09253,5.80737c-.06787.32935-.12695.7566-.17651,1.19349A29.97405,29.97405,0,0,0,2,25.02087V29A1,1,0,0,0,3,30Z"/><path d="M29,27.99792a3.1142,3.1142,0,0,1-.36768-.07836,2.26955,2.26955,0,0,1-.92724-.62659,3.4854,3.4854,0,0,0-5.41895,0c-.49121.49023-.73144.707-1.29492.707-.56152,0-.80176-.2168-1.292-.707a3.47721,3.47721,0,0,0-5.41113,0c-.49024.49023-.73047.707-1.292.707-.74072,0-1.13794-.59546-1.64038-1.04687a3.51581,3.51581,0,0,0-2.144-.94251C8.59229,26.00256,8,26.317,8,27a1.01089,1.01089,0,0,0,.37256.77942,1.98629,1.98629,0,0,0,.88208.26721c.77173.16858,1.14526.85,1.7395,1.29468A3.30579,3.30579,0,0,0,12.99609,30a3.56046,3.56046,0,0,0,2.70606-1.293c.49023-.49023.73047-.707,1.291-.707.56153,0,.80176.2168,1.292.707a3.48213,3.48213,0,0,0,5.415.001c.49121-.49121.73242-.708,1.29589-.708s.80371.2168,1.29493.707A3.56731,3.56731,0,0,0,29,30a.9927.9927,0,0,0,.63428-1.76233A1.26464,1.26464,0,0,0,29,27.99792Z"/><text x="0" y="47" fill="#000000" font-size="5px" font-weight="bold" font-family="'Helvetica Neue', Helvetica, Arial-Unicode, Arial, Sans-serif">Created by Luiz Carvalho</text><text x="0" y="52" fill="#000000" font-size="5px" font-weight="bold" font-family="'Helvetica Neue', Helvetica, Arial-Unicode, Arial, Sans-serif">from the Noun Project</text></svg>